<?xml version="1.0" encoding="UTF-8"?>
<svg id="Layer_1" data-name="Layer 1" xmlns="http://www.w3.org/2000/svg" viewBox="0 0 231.93 205.87">
  <defs>
    <style>
      .cls-1 {
        fill: #231f20;
      }

      .cls-2 {
        fill: #009345;
      }
    </style>
  </defs>
  <path class="cls-1" d="M161.2,67.99c-7.24,7.24-14.48,14.48-21.72,21.72h48.08c-7.53,38.62-15.06,77.24-22.59,115.86,22.32-45.88,44.65-91.76,66.97-137.65-23.58.02-47.15.04-70.73.06Z"/>
  <path class="cls-2" d="M155.65,205.27c-4.35.13-10.78.3-18.56.39-21.51.27-32.26.4-42.1-.42-17.72-1.48-33.55-2.75-50.32-12.7-6.7-3.97-12.84-8.88-18.43-14.72C8.75,159.55,0,135.37,0,105.27S9.71,49.31,29.15,29.6c7.31-7.41,15.35-13.43,24.13-18.06C73.33.97,91.98.27,103.02.03c25.51-.56,45.87,6.52,58.16,12.06v25.55c-11.11-6.52-33.16-17.29-60.79-16.56-8.38.22-21.33.73-35.56,8.19-7.03,3.69-13.41,8.62-19.14,14.79-14.22,15.33-21.33,35.17-21.33,59.54s6.6,44.84,19.8,59.2c3.66,3.98,7.69,7.41,12.07,10.29.27.18.61.4,1.02.65,3.09,1.92,17.77,10.09,40.64,10.59,6.34.14,15.55-.26,26.48-2.93,10.11-20.64,20.22-41.28,30.33-61.92-14.96-.05-29.93-.09-44.89-.14,7.18-7.18,14.36-14.36,21.54-21.54,15.04,0,30.09.02,45.13.03-6.95,35.81-13.89,71.62-20.84,107.43Z"/>
</svg>