<?xml version="1.0" encoding="UTF-8"?>
<svg id="Layer_1" data-name="Layer 1" xmlns="http://www.w3.org/2000/svg" viewBox="0 0 726.25 175.32">
  <defs>
    <style>
      .cls-1 {
        letter-spacing: -.06em;
      }

      .cls-2 {
        letter-spacing: -.05em;
      }

      .cls-3 {
        letter-spacing: -.04em;
      }

      .cls-4 {
        letter-spacing: -.07em;
      }

      .cls-5 {
        font-family: HostGrotesk-Medium, 'Host Grotesk';
        font-size: 72px;
        font-variation-settings: 'wght' 500;
        font-weight: 500;
      }

      .cls-5, .cls-6 {
        fill: #231f20;
      }

      .cls-7 {
        letter-spacing: -.09em;
      }

      .cls-8 {
        letter-spacing: -.11em;
      }

      .cls-9 {
        letter-spacing: 0em;
      }

      .cls-10 {
        fill: none;
        opacity: 0;
        stroke: #373737;
        stroke-miterlimit: 10;
        stroke-width: .75px;
      }

      .cls-11 {
        letter-spacing: -.04em;
      }

      .cls-12 {
        letter-spacing: -.01em;
      }

      .cls-13 {
        letter-spacing: -.09em;
      }

      .cls-14 {
        font-family: HostGrotesk-Regular, 'Host Grotesk';
        font-size: 18px;
        font-variation-settings: 'wght' 400;
      }

      .cls-14, .cls-15 {
        fill: #009345;
      }
    </style>
  </defs>
  <g>
    <path class="cls-6" d="M137.28,57.9c-6.17,6.17-12.33,12.33-18.5,18.5h40.94c-6.41,32.89-12.83,65.78-19.24,98.67,19.01-39.07,38.02-78.14,57.03-117.22-20.08.02-40.15.03-60.23.05Z"/>
    <path class="cls-15" d="M132.55,174.81c-3.71.11-9.18.25-15.8.34-18.31.23-27.47.34-35.85-.35-15.09-1.26-28.57-2.34-42.85-10.81-5.7-3.38-10.93-7.56-15.69-12.54C7.45,135.87,0,115.28,0,89.65S8.27,41.99,24.82,25.2c6.22-6.31,13.07-11.44,20.55-15.38C62.45.83,78.33.23,87.73.03c21.73-.47,39.07,5.55,49.53,10.27v21.76c-9.46-5.55-28.24-14.73-51.77-14.1-7.14.19-18.16.63-30.28,6.98-5.99,3.14-11.42,7.34-16.3,12.6-12.11,13.05-18.16,29.95-18.16,50.71s5.62,38.19,16.86,50.41c3.12,3.39,6.54,6.31,10.28,8.76.23.15.52.34.87.55,2.63,1.63,15.14,8.59,34.61,9.02,5.4.12,13.24-.22,22.55-2.49,8.61-17.58,17.22-35.16,25.83-52.73-12.74-.04-25.49-.08-38.23-.12,6.11-6.11,12.23-12.23,18.34-18.34,12.81,0,25.62.02,38.43.02-5.92,30.5-11.83,60.99-17.75,91.49Z"/>
  </g>
  <text class="cls-5" transform="translate(223.41 95.08)"><tspan x="0" y="0">CONSU</tspan><tspan class="cls-8" x="244.58" y="0">L</tspan><tspan class="cls-7" x="274.46" y="0">T</tspan><tspan x="310.53" y="0">AN</tspan><tspan class="cls-11" x="408.81" y="0">C</tspan><tspan x="456.62" y="0">Y</tspan></text>
  <text class="cls-14" transform="translate(345.94 131.32)"><tspan x="0" y="0">CLARIT</tspan><tspan class="cls-4" x="60.5" y="0">Y</tspan><tspan x="70.87" y="0">. </tspan><tspan class="cls-3" x="80.42" y="0">S</tspan><tspan x="90.61" y="0">TR</tspan><tspan class="cls-13" x="112.7" y="0">A</tspan><tspan x="123.28" y="0">T</tspan><tspan class="cls-12" x="133.85" y="0">E</tspan><tspan class="cls-1" x="143.33" y="0">G</tspan><tspan class="cls-4" x="155.52" y="0">Y</tspan><tspan x="165.89" y="0">. G</tspan><tspan class="cls-9" x="188.64" y="0">R</tspan><tspan class="cls-2" x="199.98" y="0">O</tspan><tspan x="212.81" y="0">WTH.</tspan></text>
  <line class="cls-10" x1="306.7" y1="22.15" x2="627.64" y2="22.15"/>
</svg>